<?xml version="1.0" standalone="no"?>
<!DOCTYPE svg PUBLIC "-//W3C//DTD SVG 20010904//EN"
 "http://www.w3.org/TR/2001/REC-SVG-20010904/DTD/svg10.dtd">
<svg version="1.0" xmlns="http://www.w3.org/2000/svg"
 width="500.000000pt" height="500.000000pt" viewBox="0 0 500.000000 500.000000"
 preserveAspectRatio="xMidYMid meet">
<metadata>
Created by potrace 1.14, written by Peter Selinger 2001-2017
</metadata>
<g transform="translate(0.000000,500.000000) scale(0.100000,-0.100000)"
fill="#000000" stroke="none">
<path d="M3358 4989 c-26 -15 -1506 -1694 -1520 -1724 -13 -28 3 -78 30 -92
10 -4 209 -10 444 -13 l427 -5 -649 -730 c-608 -683 -650 -732 -650 -767 0
-28 6 -42 26 -57 26 -20 37 -21 410 -21 211 0 384 -2 384 -5 0 -3 -272 -331
-605 -729 -332 -399 -607 -736 -610 -749 -14 -55 41 -108 97 -93 13 3 431 414
931 913 808 809 907 912 907 939 0 20 -9 39 -26 55 l-26 24 -367 5 -368 5 689
729 c623 659 688 731 688 761 0 18 -9 43 -19 56 l-19 24 -473 5 -472 5 583
620 c320 341 607 645 637 676 68 70 78 111 38 152 l-28 27 -221 0 c-130 0
-228 -5 -238 -11z"/>
</g>
</svg>
