<?xml version="1.0" standalone="no"?>
<!DOCTYPE svg PUBLIC "-//W3C//DTD SVG 20010904//EN"
 "http://www.w3.org/TR/2001/REC-SVG-20010904/DTD/svg10.dtd">
<svg version="1.0" xmlns="http://www.w3.org/2000/svg"
 width="500.000000pt" height="500.000000pt" viewBox="0 0 500.000000 500.000000"
 preserveAspectRatio="xMidYMid meet">
<metadata>
Created by potrace 1.14, written by Peter Selinger 2001-2017
</metadata>
<g transform="translate(0.000000,500.000000) scale(0.100000,-0.100000)"
fill="#000000" stroke="none">
<path d="M2329 4296 c-2 -2 -31 -6 -64 -9 -116 -12 -268 -43 -360 -74 -27 -10
-52 -18 -55 -18 -76 -12 -359 -149 -490 -237 -477 -319 -794 -799 -894 -1353
-13 -71 -24 -137 -24 -145 0 -8 -4 -63 -8 -122 l-7 -108 262 0 261 0 1 -52 c1
-116 11 -188 45 -327 109 -444 421 -824 839 -1021 86 -41 240 -95 297 -105 15
-3 57 -11 93 -19 59 -12 65 -12 66 3 3 91 -1 985 -5 998 -3 10 -8 33 -11 52
-15 91 -86 212 -175 301 -69 67 -204 140 -298 159 -33 7 -205 11 -454 11
l-401 0 6 108 c21 371 178 714 452 987 302 302 658 451 1090 455 175 2 372
-33 545 -97 106 -39 263 -118 298 -150 7 -7 17 -13 22 -13 5 0 15 -6 22 -12 7
-7 40 -33 72 -58 50 -38 200 -182 244 -235 7 -8 43 -59 79 -113 160 -235 251
-505 268 -796 2 -28 4 -57 4 -63 1 -10 60 -13 259 -13 l258 0 -2 53 c-2 64
-14 205 -19 232 -3 11 -7 36 -9 55 -10 67 -26 143 -42 194 -8 28 -18 62 -20
76 -15 73 -110 289 -185 421 -310 542 -863 922 -1479 1015 -19 3 -46 8 -60 10
-29 6 -415 15 -421 10z"/>
<path d="M3165 2210 c-221 -62 -384 -228 -442 -450 -14 -57 -17 -129 -17 -560
l-1 -495 35 1 c147 2 442 117 628 243 302 205 526 517 628 876 9 33 18 69 20
80 2 11 8 47 14 80 6 33 13 102 17 153 l6 92 -414 -1 c-356 -1 -422 -4 -474
-19z"/>
</g>
</svg>
